# xmcd
#
# Track frame offsets:
#	150
#	14619
#	28801
#	43205
#	54483
#	70892
#	82817
#	97043
#	107320
#	115889
#	129918
#	143310
#	155769
#	168366
#	191834
#	211326
#	223618
#	243020
#
# Disc length: 3451 seconds
#
# Revision: 1
# Processed by: cddbd v1.5.1PL2 Copyright (c) Steve Scherf et al.
# Submitted via: audiograbber 1.83.01
#
DISCID=f30d7912
DTITLE=Div.Interpreten - On the Road again
DYEAR=1900
DGENRE=
TTITLE0=Canned Heat - On The Road Again
TTITLE1=Johnny Cash - Orange Blossom
TTITLE2=John Denver - Take me home country Roads
TTITLE3=Roger Miller - King of the Road
TTITLE4=The Cats - One Way Wind
TTITLE5=Johnny Cash - Ring of Fire
TTITLE6=Simon and Garfunkel - El Condor Pasa
TTITLE7=Johnny Cash - There you go
TTITLE8=Lorne Greene - Bonanza
TTITLE9=Roy Drusky - Guantamera
TTITLE10=Johnny Cash - The Sheriff
TTITLE11=Christie - Yellow River
TTITLE12=Hugo Montenegro - Zwei glorreiche Halunken
TTITLE13=Simon and Garfunkel - The Boxer
TTITLE14=The Soggy Bottom Boys - O Brother where are thou
TTITLE15=Waylon Jennings - Don´t think twice
TTITLE16=The Hollies - He ain´t heavy he´s my brother
TTITLE17=Steppenwolf - Born To Be Wild
EXTD=
EXTT0=
EXTT1=
EXTT2=
EXTT3=
EXTT4=
EXTT5=
EXTT6=
EXTT7=
EXTT8=
EXTT9=
EXTT10=
EXTT11=
EXTT12=
EXTT13=
EXTT14=
EXTT15=
EXTT16=
EXTT17=
PLAYORDER=
